<?xml version="1.0" encoding="utf-8" standalone="no"?>
<!DOCTYPE svg PUBLIC "-//W3C//DTD SVG 1.1//EN"
  "http://www.w3.org/Graphics/SVG/1.1/DTD/svg11.dtd">
<!-- Created with matplotlib (https://matplotlib.org/) -->
<svg height="642.24pt" version="1.1" viewBox="0 0 1012.32 642.24" width="1012.32pt" xmlns="http://www.w3.org/2000/svg" xmlns:xlink="http://www.w3.org/1999/xlink">
 <defs>
  <style type="text/css">
*{stroke-linecap:butt;stroke-linejoin:round;}
  </style>
 </defs>
 <g id="figure_1">
  <g id="patch_1">
   <path d="M 0 642.24 
L 1012.32 642.24 
L 1012.32 0 
L 0 0 
z
" style="fill:#ffffff;"/>
  </g>
  <g id="axes_1">
   <g id="patch_2">
    <path d="M 126.54 571.5936 
L 754.1784 571.5936 
L 754.1784 77.0688 
L 126.54 77.0688 
z
" style="fill:#ffffff;"/>
   </g>
   <g id="PathCollection_1">
    <path clip-path="url(#pf00beb7231)" d="M 159.5736 571.5936 
L 192.6072 571.5936 
L 225.6408 571.5936 
L 258.6744 571.5936 
L 291.708 571.5936 
L 324.7416 571.5936 
L 357.7752 571.5936 
L 390.8088 571.5936 
L 423.8424 571.5936 
L 456.876 571.5936 
L 489.9096 571.5936 
L 522.9432 571.5936 
L 555.9768 571.5936 
L 589.0104 571.5936 
L 593.850799 571.5936 
L 622.044 547.394495 
L 655.0776 547.65815 
L 688.1112 548.010649 
L 721.1448 548.505998 
L 723.507326 545.565979 
L 721.1448 538.490559 
L 688.1112 538.490559 
L 655.0776 538.490559 
L 622.044 538.490559 
L 589.0104 538.490559 
L 555.9768 538.490559 
L 522.9432 538.490559 
L 489.9096 538.490559 
L 456.876 538.490559 
L 423.8424 538.490559 
L 390.8088 538.490559 
L 357.7752 538.490559 
L 324.7416 538.490559 
L 291.708 538.490559 
L 258.6744 538.490559 
L 225.6408 538.490559 
L 192.6072 538.490559 
L 159.5736 538.490559 
L 126.54 538.490559 
L 126.54 545.565979 
z
" style="fill:#f7f0f7;"/>
    <path clip-path="url(#pf00beb7231)" d="M 159.5736 110.171841 
L 192.6072 110.171841 
L 225.6408 110.171841 
L 258.6744 110.171841 
L 291.708 110.171841 
L 324.7416 110.171841 
L 357.7752 110.171841 
L 390.8088 110.171841 
L 393.221964 103.096421 
L 390.8088 101.303867 
L 357.7752 101.314248 
L 324.7416 101.317695 
L 291.708 101.315634 
L 258.6744 101.309192 
L 225.6408 101.299269 
L 192.6072 101.286588 
L 159.5736 101.271728 
L 126.54 101.255161 
L 126.54 103.096421 
L 126.54 110.171841 
z
" style="fill:#f7f0f7;"/>
   </g>
   <g id="PathCollection_2">
    <path clip-path="url(#pf00beb7231)" d="M 622.044 558.473604 
L 655.0776 560.334765 
L 688.1112 562.823081 
L 721.1448 566.319782 
L 737.822037 545.565979 
L 754.1784 528.077568 
L 754.1784 519.538358 
L 754.1784 504.065382 
L 721.1448 504.065382 
L 688.1112 504.065382 
L 655.0776 504.065382 
L 622.044 504.065382 
L 589.0104 504.065382 
L 555.9768 504.065382 
L 522.9432 504.065382 
L 489.9096 504.065382 
L 456.876 504.065382 
L 423.8424 504.065382 
L 390.8088 504.065382 
L 357.7752 504.065382 
L 324.7416 504.065382 
L 291.708 504.065382 
L 258.6744 504.065382 
L 225.6408 504.065382 
L 192.6072 504.065382 
L 159.5736 504.065382 
L 126.54 504.065382 
L 126.54 519.538358 
L 126.54 538.490559 
L 159.5736 538.490559 
L 192.6072 538.490559 
L 225.6408 538.490559 
L 258.6744 538.490559 
L 291.708 538.490559 
L 324.7416 538.490559 
L 357.7752 538.490559 
L 390.8088 538.490559 
L 423.8424 538.490559 
L 456.876 538.490559 
L 489.9096 538.490559 
L 522.9432 538.490559 
L 555.9768 538.490559 
L 589.0104 538.490559 
L 622.044 538.490559 
L 655.0776 538.490559 
L 688.1112 538.490559 
L 721.1448 538.490559 
L 723.507326 545.565979 
L 721.1448 548.505998 
L 688.1112 548.010649 
L 655.0776 547.65815 
L 622.044 547.394495 
L 593.850799 571.5936 
L 606.75853 571.5936 
z
" style="fill:#e3e0ee;"/>
    <path clip-path="url(#pf00beb7231)" d="M 754.1784 571.5936 
z
" style="fill:#e3e0ee;"/>
    <path clip-path="url(#pf00beb7231)" d="M 159.5736 144.597018 
L 192.6072 144.597018 
L 225.6408 144.597018 
L 258.6744 144.597018 
L 291.708 144.597018 
L 324.7416 144.597018 
L 357.7752 144.597018 
L 390.8088 144.597018 
L 423.8424 144.597018 
L 445.722582 129.124042 
L 423.8424 120.334545 
L 407.843493 103.096421 
L 390.8088 90.442657 
L 357.7752 90.515936 
L 324.7416 90.540269 
L 291.708 90.525716 
L 258.6744 90.480242 
L 225.6408 90.410199 
L 192.6072 90.320679 
L 159.5736 90.215784 
L 126.54 90.098836 
L 126.54 101.255161 
L 159.5736 101.271728 
L 192.6072 101.286588 
L 225.6408 101.299269 
L 258.6744 101.309192 
L 291.708 101.315634 
L 324.7416 101.317695 
L 357.7752 101.314248 
L 390.8088 101.303867 
L 393.221964 103.096421 
L 390.8088 110.171841 
L 357.7752 110.171841 
L 324.7416 110.171841 
L 291.708 110.171841 
L 258.6744 110.171841 
L 225.6408 110.171841 
L 192.6072 110.171841 
L 159.5736 110.171841 
L 126.54 110.171841 
L 126.54 129.124042 
L 126.54 144.597018 
z
" style="fill:#e3e0ee;"/>
    <path clip-path="url(#pf00beb7231)" d="M 489.9096 129.897333 
L 522.9432 135.830403 
L 555.9768 138.312578 
L 588.67844 129.124042 
L 555.9768 120.85368 
L 522.9432 124.652123 
L 489.9096 128.755513 
L 488.609324 129.124042 
z
" style="fill:#e3e0ee;"/>
    <path clip-path="url(#pf00beb7231)" d="M 754.1784 144.597018 
L 754.1784 129.124042 
L 754.1784 107.638104 
L 737.539504 129.124042 
z
" style="fill:#e3e0ee;"/>
    <path clip-path="url(#pf00beb7231)" d="M 655.0776 111.310768 
L 688.1112 112.286118 
L 721.1448 105.509717 
L 731.803642 103.096421 
L 721.1448 97.154118 
L 688.1112 92.715116 
L 655.0776 97.379102 
L 629.307155 103.096421 
z
" style="fill:#e3e0ee;"/>
    <path clip-path="url(#pf00beb7231)" d="M 754.1784 77.0688 
z
" style="fill:#e3e0ee;"/>
   </g>
   <g id="PathCollection_3">
    <path clip-path="url(#pf00beb7231)" d="M 622.044 569.552712 
L 642.598239 571.5936 
L 655.0776 571.5936 
L 688.1112 571.5936 
L 721.1448 571.5936 
L 754.1784 571.5936 
L 754.1784 548.814826 
L 752.136749 545.565979 
L 754.1784 543.383022 
L 754.1784 528.077568 
L 737.822037 545.565979 
L 721.1448 566.319782 
L 688.1112 562.823081 
L 655.0776 560.334765 
L 622.044 558.473604 
L 606.75853 571.5936 
L 619.666261 571.5936 
z
" style="fill:#c6cce3;"/>
    <path clip-path="url(#pf00beb7231)" d="M 159.5736 504.065382 
L 192.6072 504.065382 
L 225.6408 504.065382 
L 258.6744 504.065382 
L 291.708 504.065382 
L 324.7416 504.065382 
L 357.7752 504.065382 
L 390.8088 504.065382 
L 423.8424 504.065382 
L 456.876 504.065382 
L 489.9096 504.065382 
L 522.9432 504.065382 
L 555.9768 504.065382 
L 589.0104 504.065382 
L 622.044 504.065382 
L 655.0776 504.065382 
L 688.1112 504.065382 
L 721.1448 504.065382 
L 754.1784 504.065382 
L 754.1784 493.510737 
L 754.1784 479.709523 
L 721.1448 479.709523 
L 688.1112 479.709523 
L 655.0776 479.709523 
L 622.044 479.709523 
L 589.0104 479.709523 
L 555.9768 479.709523 
L 522.9432 479.709523 
L 489.9096 479.709523 
L 456.876 479.709523 
L 423.8424 479.709523 
L 390.8088 479.709523 
L 357.7752 479.709523 
L 324.7416 479.709523 
L 291.708 479.709523 
L 258.6744 479.709523 
L 225.6408 479.709523 
L 192.6072 479.709523 
L 159.5736 479.709523 
L 126.54 479.709523 
L 126.54 493.510737 
L 126.54 504.065382 
z
" style="fill:#c6cce3;"/>
    <path clip-path="url(#pf00beb7231)" d="M 159.5736 168.952877 
L 192.6072 168.952877 
L 225.6408 168.952877 
L 258.6744 168.952877 
L 291.708 168.952877 
L 324.7416 168.952877 
L 357.7752 168.952877 
L 390.8088 168.952877 
L 423.8424 168.952877 
L 456.876 168.952877 
L 489.9096 168.952877 
L 522.9432 168.952877 
L 555.9768 168.952877 
L 589.0104 168.952877 
L 622.044 168.952877 
L 655.0776 168.952877 
L 688.1112 168.952877 
L 721.1448 168.952877 
L 754.1784 168.952877 
L 754.1784 155.151663 
L 754.1784 144.597018 
L 737.539504 129.124042 
L 754.1784 107.638104 
L 754.1784 103.096421 
L 754.1784 77.0688 
L 721.1448 77.0688 
L 688.1112 77.0688 
L 655.0776 77.0688 
L 622.044 77.0688 
L 589.0104 77.0688 
L 555.9768 77.0688 
L 537.082536 77.0688 
L 522.9432 79.630378 
L 489.9096 86.789103 
L 456.876 98.571227 
L 447.893587 103.096421 
L 423.8424 104.580484 
L 422.465023 103.096421 
L 390.8088 79.581446 
L 357.7752 79.717623 
L 324.7416 79.762844 
L 291.708 79.735798 
L 258.6744 79.651292 
L 225.6408 79.521128 
L 192.6072 79.354769 
L 159.5736 79.15984 
L 126.54 78.94251 
L 126.54 90.098836 
L 159.5736 90.215784 
L 192.6072 90.320679 
L 225.6408 90.410199 
L 258.6744 90.480242 
L 291.708 90.525716 
L 324.7416 90.540269 
L 357.7752 90.515936 
L 390.8088 90.442657 
L 407.843493 103.096421 
L 423.8424 120.334545 
L 445.722582 129.124042 
L 423.8424 144.597018 
L 390.8088 144.597018 
L 357.7752 144.597018 
L 324.7416 144.597018 
L 291.708 144.597018 
L 258.6744 144.597018 
L 225.6408 144.597018 
L 192.6072 144.597018 
L 159.5736 144.597018 
L 126.54 144.597018 
L 126.54 155.151663 
L 126.54 168.952877 
z
M 488.609324 129.124042 
L 489.9096 128.755513 
L 522.9432 124.652123 
L 555.9768 120.85368 
L 588.67844 129.124042 
L 555.9768 138.312578 
L 522.9432 135.830403 
L 489.9096 129.897333 
z
M 629.307155 103.096421 
L 655.0776 97.379102 
L 688.1112 92.715116 
L 721.1448 97.154118 
L 731.803642 103.096421 
L 721.1448 105.509717 
L 688.1112 112.286118 
L 655.0776 111.310768 
z
" style="fill:#c6cce3;"/>
   </g>
   <g id="PathCollection_4">
    <path clip-path="url(#pf00beb7231)" d="M 622.044 571.5936 
L 642.598239 571.5936 
L 622.044 569.552712 
L 619.666261 571.5936 
z
" style="fill:#a1bbda;"/>
    <path clip-path="url(#pf00beb7231)" d="M 754.1784 548.814826 
L 754.1784 545.565979 
L 754.1784 543.383022 
L 752.136749 545.565979 
z
" style="fill:#a1bbda;"/>
    <path clip-path="url(#pf00beb7231)" d="M 159.5736 479.709523 
L 192.6072 479.709523 
L 225.6408 479.709523 
L 258.6744 479.709523 
L 291.708 479.709523 
L 324.7416 479.709523 
L 357.7752 479.709523 
L 390.8088 479.709523 
L 423.8424 479.709523 
L 456.876 479.709523 
L 489.9096 479.709523 
L 522.9432 479.709523 
L 555.9768 479.709523 
L 589.0104 479.709523 
L 622.044 479.709523 
L 655.0776 479.709523 
L 688.1112 479.709523 
L 721.1448 479.709523 
L 754.1784 479.709523 
L 754.1784 467.483116 
L 754.1784 458.244088 
L 721.1448 458.244088 
L 688.1112 458.244088 
L 655.0776 458.244088 
L 622.044 458.244088 
L 589.0104 458.244088 
L 555.9768 458.244088 
L 522.9432 458.244088 
L 489.9096 458.244088 
L 456.876 458.244088 
L 423.8424 458.244088 
L 390.8088 458.244088 
L 357.7752 458.244088 
L 324.7416 458.244088 
L 291.708 458.244088 
L 258.6744 458.244088 
L 225.6408 458.244088 
L 192.6072 458.244088 
L 159.5736 458.244088 
L 126.54 458.244088 
L 126.54 467.483116 
L 126.54 479.709523 
z
" style="fill:#a1bbda;"/>
    <path clip-path="url(#pf00beb7231)" d="M 159.5736 190.418312 
L 192.6072 190.418312 
L 225.6408 190.418312 
L 258.6744 190.418312 
L 291.708 190.418312 
L 324.7416 190.418312 
L 357.7752 190.418312 
L 390.8088 190.418312 
L 423.8424 190.418312 
L 456.876 190.418312 
L 489.9096 190.418312 
L 522.9432 190.418312 
L 555.9768 190.418312 
L 589.0104 190.418312 
L 622.044 190.418312 
L 655.0776 190.418312 
L 688.1112 190.418312 
L 721.1448 190.418312 
L 754.1784 190.418312 
L 754.1784 181.179284 
L 754.1784 168.952877 
L 721.1448 168.952877 
L 688.1112 168.952877 
L 655.0776 168.952877 
L 622.044 168.952877 
L 589.0104 168.952877 
L 555.9768 168.952877 
L 522.9432 168.952877 
L 489.9096 168.952877 
L 456.876 168.952877 
L 423.8424 168.952877 
L 390.8088 168.952877 
L 357.7752 168.952877 
L 324.7416 168.952877 
L 291.708 168.952877 
L 258.6744 168.952877 
L 225.6408 168.952877 
L 192.6072 168.952877 
L 159.5736 168.952877 
L 126.54 168.952877 
L 126.54 181.179284 
L 126.54 190.418312 
z
" style="fill:#a1bbda;"/>
    <path clip-path="url(#pf00beb7231)" d="M 423.8424 104.580484 
L 447.893587 103.096421 
L 456.876 98.571227 
L 489.9096 86.789103 
L 522.9432 79.630378 
L 537.082536 77.0688 
L 522.9432 77.0688 
L 489.9096 77.0688 
L 456.876 77.0688 
L 423.8424 77.0688 
L 390.8088 77.0688 
L 357.7752 77.0688 
L 324.7416 77.0688 
L 291.708 77.0688 
L 258.6744 77.0688 
L 225.6408 77.0688 
L 192.6072 77.0688 
L 159.5736 77.0688 
L 126.54 77.0688 
L 126.54 78.94251 
L 159.5736 79.15984 
L 192.6072 79.354769 
L 225.6408 79.521128 
L 258.6744 79.651292 
L 291.708 79.735798 
L 324.7416 79.762844 
L 357.7752 79.717623 
L 390.8088 79.581446 
L 422.465023 103.096421 
z
" style="fill:#a1bbda;"/>
   </g>
   <g id="PathCollection_5">
    <path clip-path="url(#pf00beb7231)" d="M 159.5736 458.244088 
L 192.6072 458.244088 
L 225.6408 458.244088 
L 258.6744 458.244088 
L 291.708 458.244088 
L 324.7416 458.244088 
L 357.7752 458.244088 
L 390.8088 458.244088 
L 423.8424 458.244088 
L 456.876 458.244088 
L 489.9096 458.244088 
L 522.9432 458.244088 
L 555.9768 458.244088 
L 589.0104 458.244088 
L 622.044 458.244088 
L 655.0776 458.244088 
L 688.1112 458.244088 
L 721.1448 458.244088 
L 754.1784 458.244088 
L 754.1784 441.455495 
L 754.1784 437.666722 
L 721.1448 437.666722 
L 688.1112 437.666722 
L 655.0776 437.666722 
L 622.044 437.666722 
L 589.0104 437.666722 
L 555.9768 437.666722 
L 522.9432 437.666722 
L 489.9096 437.666722 
L 456.876 437.666722 
L 423.8424 437.666722 
L 390.8088 437.666722 
L 357.7752 437.666722 
L 324.7416 437.666722 
L 291.708 437.666722 
L 258.6744 437.666722 
L 225.6408 437.666722 
L 192.6072 437.666722 
L 159.5736 437.666722 
L 126.54 437.666722 
L 126.54 441.455495 
L 126.54 458.244088 
z
" style="fill:#73a9cf;"/>
    <path clip-path="url(#pf00beb7231)" d="M 159.5736 210.995678 
L 192.6072 210.995678 
L 225.6408 210.995678 
L 258.6744 210.995678 
L 291.708 210.995678 
L 324.7416 210.995678 
L 357.7752 210.995678 
L 390.8088 210.995678 
L 423.8424 210.995678 
L 456.876 210.995678 
L 489.9096 210.995678 
L 522.9432 210.995678 
L 555.9768 210.995678 
L 589.0104 210.995678 
L 622.044 210.995678 
L 655.0776 210.995678 
L 688.1112 210.995678 
L 721.1448 210.995678 
L 754.1784 210.995678 
L 754.1784 207.206905 
L 754.1784 190.418312 
L 721.1448 190.418312 
L 688.1112 190.418312 
L 655.0776 190.418312 
L 622.044 190.418312 
L 589.0104 190.418312 
L 555.9768 190.418312 
L 522.9432 190.418312 
L 489.9096 190.418312 
L 456.876 190.418312 
L 423.8424 190.418312 
L 390.8088 190.418312 
L 357.7752 190.418312 
L 324.7416 190.418312 
L 291.708 190.418312 
L 258.6744 190.418312 
L 225.6408 190.418312 
L 192.6072 190.418312 
L 159.5736 190.418312 
L 126.54 190.418312 
L 126.54 207.206905 
L 126.54 210.995678 
z
" style="fill:#73a9cf;"/>
   </g>
   <g id="PathCollection_6">
    <path clip-path="url(#pf00beb7231)" d="M 159.5736 437.666722 
L 192.6072 437.666722 
L 225.6408 437.666722 
L 258.6744 437.666722 
L 291.708 437.666722 
L 324.7416 437.666722 
L 357.7752 437.666722 
L 390.8088 437.666722 
L 423.8424 437.666722 
L 456.876 437.666722 
L 489.9096 437.666722 
L 522.9432 437.666722 
L 555.9768 437.666722 
L 589.0104 437.666722 
L 622.044 437.666722 
L 655.0776 437.666722 
L 688.1112 437.666722 
L 721.1448 437.666722 
L 754.1784 437.666722 
L 754.1784 416.618566 
L 721.1448 416.618566 
L 688.1112 416.618566 
L 655.0776 416.618566 
L 622.044 416.618566 
L 589.0104 416.618566 
L 555.9768 416.618566 
L 522.9432 416.618566 
L 489.9096 416.618566 
L 456.876 416.618566 
L 423.8424 416.618566 
L 390.8088 416.618566 
L 357.7752 416.618566 
L 324.7416 416.618566 
L 291.708 416.618566 
L 258.6744 416.618566 
L 225.6408 416.618566 
L 192.6072 416.618566 
L 159.5736 416.618566 
L 126.54 416.618566 
L 126.54 437.666722 
z
" style="fill:#3d93c2;"/>
    <path clip-path="url(#pf00beb7231)" d="M 159.5736 232.043834 
L 192.6072 232.043834 
L 225.6408 232.043834 
L 258.6744 232.043834 
L 291.708 232.043834 
L 324.7416 232.043834 
L 357.7752 232.043834 
L 390.8088 232.043834 
L 423.8424 232.043834 
L 456.876 232.043834 
L 489.9096 232.043834 
L 522.9432 232.043834 
L 555.9768 232.043834 
L 589.0104 232.043834 
L 622.044 232.043834 
L 655.0776 232.043834 
L 688.1112 232.043834 
L 721.1448 232.043834 
L 754.1784 232.043834 
L 754.1784 210.995678 
L 721.1448 210.995678 
L 688.1112 210.995678 
L 655.0776 210.995678 
L 622.044 210.995678 
L 589.0104 210.995678 
L 555.9768 210.995678 
L 522.9432 210.995678 
L 489.9096 210.995678 
L 456.876 210.995678 
L 423.8424 210.995678 
L 390.8088 210.995678 
L 357.7752 210.995678 
L 324.7416 210.995678 
L 291.708 210.995678 
L 258.6744 210.995678 
L 225.6408 210.995678 
L 192.6072 210.995678 
L 159.5736 210.995678 
L 126.54 210.995678 
L 126.54 232.043834 
z
" style="fill:#3d93c2;"/>
   </g>
   <g id="PathCollection_7">
    <path clip-path="url(#pf00beb7231)" d="M 159.5736 416.618566 
L 192.6072 416.618566 
L 225.6408 416.618566 
L 258.6744 416.618566 
L 291.708 416.618566 
L 324.7416 416.618566 
L 357.7752 416.618566 
L 390.8088 416.618566 
L 423.8424 416.618566 
L 456.876 416.618566 
L 489.9096 416.618566 
L 522.9432 416.618566 
L 555.9768 416.618566 
L 589.0104 416.618566 
L 622.044 416.618566 
L 655.0776 416.618566 
L 688.1112 416.618566 
L 721.1448 416.618566 
L 754.1784 416.618566 
L 754.1784 415.427874 
L 754.1784 392.433841 
L 721.1448 392.433841 
L 688.1112 392.433841 
L 655.0776 392.433841 
L 622.044 392.433841 
L 589.0104 392.433841 
L 555.9768 392.433841 
L 522.9432 392.433841 
L 489.9096 392.433841 
L 456.876 392.433841 
L 423.8424 392.433841 
L 390.8088 392.433841 
L 357.7752 392.433841 
L 324.7416 392.433841 
L 291.708 392.433841 
L 258.6744 392.433841 
L 225.6408 392.433841 
L 192.6072 392.433841 
L 159.5736 392.433841 
L 126.54 392.433841 
L 126.54 415.427874 
L 126.54 416.618566 
z
" style="fill:#1077b4;"/>
    <path clip-path="url(#pf00beb7231)" d="M 159.5736 256.228559 
L 192.6072 256.228559 
L 225.6408 256.228559 
L 258.6744 256.228559 
L 291.708 256.228559 
L 324.7416 256.228559 
L 357.7752 256.228559 
L 390.8088 256.228559 
L 423.8424 256.228559 
L 456.876 256.228559 
L 489.9096 256.228559 
L 522.9432 256.228559 
L 555.9768 256.228559 
L 589.0104 256.228559 
L 622.044 256.228559 
L 655.0776 256.228559 
L 688.1112 256.228559 
L 721.1448 256.228559 
L 754.1784 256.228559 
L 754.1784 233.234526 
L 754.1784 232.043834 
L 721.1448 232.043834 
L 688.1112 232.043834 
L 655.0776 232.043834 
L 622.044 232.043834 
L 589.0104 232.043834 
L 555.9768 232.043834 
L 522.9432 232.043834 
L 489.9096 232.043834 
L 456.876 232.043834 
L 423.8424 232.043834 
L 390.8088 232.043834 
L 357.7752 232.043834 
L 324.7416 232.043834 
L 291.708 232.043834 
L 258.6744 232.043834 
L 225.6408 232.043834 
L 192.6072 232.043834 
L 159.5736 232.043834 
L 126.54 232.043834 
L 126.54 233.234526 
L 126.54 256.228559 
z
" style="fill:#1077b4;"/>
   </g>
   <g id="PathCollection_8">
    <path clip-path="url(#pf00beb7231)" d="M 159.5736 392.433841 
L 192.6072 392.433841 
L 225.6408 392.433841 
L 258.6744 392.433841 
L 291.708 392.433841 
L 324.7416 392.433841 
L 357.7752 392.433841 
L 390.8088 392.433841 
L 423.8424 392.433841 
L 456.876 392.433841 
L 489.9096 392.433841 
L 522.9432 392.433841 
L 555.9768 392.433841 
L 589.0104 392.433841 
L 622.044 392.433841 
L 655.0776 392.433841 
L 688.1112 392.433841 
L 721.1448 392.433841 
L 754.1784 392.433841 
L 754.1784 389.400253 
L 754.1784 363.372632 
L 754.1784 357.588902 
L 721.1448 357.588902 
L 688.1112 357.588902 
L 655.0776 357.588902 
L 622.044 357.588902 
L 589.0104 357.588902 
L 555.9768 357.588902 
L 522.9432 357.588902 
L 489.9096 357.588902 
L 456.876 357.588902 
L 423.8424 357.588902 
L 390.8088 357.588902 
L 357.7752 357.588902 
L 324.7416 357.588902 
L 291.708 357.588902 
L 258.6744 357.588902 
L 225.6408 357.588902 
L 192.6072 357.588902 
L 159.5736 357.588902 
L 126.54 357.588902 
L 126.54 363.372632 
L 126.54 389.400253 
L 126.54 392.433841 
z
" style="fill:#046198;"/>
    <path clip-path="url(#pf00beb7231)" d="M 159.5736 291.073498 
L 192.6072 291.073498 
L 225.6408 291.073498 
L 258.6744 291.073498 
L 291.708 291.073498 
L 324.7416 291.073498 
L 357.7752 291.073498 
L 390.8088 291.073498 
L 423.8424 291.073498 
L 456.876 291.073498 
L 489.9096 291.073498 
L 522.9432 291.073498 
L 555.9768 291.073498 
L 589.0104 291.073498 
L 622.044 291.073498 
L 655.0776 291.073498 
L 688.1112 291.073498 
L 721.1448 291.073498 
L 754.1784 291.073498 
L 754.1784 285.289768 
L 754.1784 259.262147 
L 754.1784 256.228559 
L 721.1448 256.228559 
L 688.1112 256.228559 
L 655.0776 256.228559 
L 622.044 256.228559 
L 589.0104 256.228559 
L 555.9768 256.228559 
L 522.9432 256.228559 
L 489.9096 256.228559 
L 456.876 256.228559 
L 423.8424 256.228559 
L 390.8088 256.228559 
L 357.7752 256.228559 
L 324.7416 256.228559 
L 291.708 256.228559 
L 258.6744 256.228559 
L 225.6408 256.228559 
L 192.6072 256.228559 
L 159.5736 256.228559 
L 126.54 256.228559 
L 126.54 259.262147 
L 126.54 285.289768 
L 126.54 291.073498 
z
" style="fill:#046198;"/>
   </g>
   <g id="PathCollection_9">
    <path clip-path="url(#pf00beb7231)" d="M 159.5736 357.588902 
L 192.6072 357.588902 
L 225.6408 357.588902 
L 258.6744 357.588902 
L 291.708 357.588902 
L 324.7416 357.588902 
L 357.7752 357.588902 
L 390.8088 357.588902 
L 423.8424 357.588902 
L 456.876 357.588902 
L 489.9096 357.588902 
L 522.9432 357.588902 
L 555.9768 357.588902 
L 589.0104 357.588902 
L 622.044 357.588902 
L 655.0776 357.588902 
L 688.1112 357.588902 
L 721.1448 357.588902 
L 754.1784 357.588902 
L 754.1784 337.345011 
L 754.1784 311.317389 
L 754.1784 291.073498 
L 721.1448 291.073498 
L 688.1112 291.073498 
L 655.0776 291.073498 
L 622.044 291.073498 
L 589.0104 291.073498 
L 555.9768 291.073498 
L 522.9432 291.073498 
L 489.9096 291.073498 
L 456.876 291.073498 
L 423.8424 291.073498 
L 390.8088 291.073498 
L 357.7752 291.073498 
L 324.7416 291.073498 
L 291.708 291.073498 
L 258.6744 291.073498 
L 225.6408 291.073498 
L 192.6072 291.073498 
L 159.5736 291.073498 
L 126.54 291.073498 
L 126.54 311.317389 
L 126.54 337.345011 
L 126.54 357.588902 
z
" style="fill:#03476f;"/>
   </g>
   <g id="matplotlib.axis_1">
    <g id="xtick_1">
     <g id="line2d_1">
      <defs>
       <path d="M 0 0 
L 0 3.5 
" id="m050f6257d0" style="stroke:#000000;stroke-width:0.8;"/>
      </defs>
      <g>
       <use style="stroke:#000000;stroke-width:0.8;" x="126.54" xlink:href="#m050f6257d0" y="571.5936"/>
      </g>
     </g>
     <g id="text_1">
      <!-- 0.00 -->
      <defs>
       <path d="M 31.78125 66.40625 
Q 24.171875 66.40625 20.328125 58.90625 
Q 16.5 51.421875 16.5 36.375 
Q 16.5 21.390625 20.328125 13.890625 
Q 24.171875 6.390625 31.78125 6.390625 
Q 39.453125 6.390625 43.28125 13.890625 
Q 47.125 21.390625 47.125 36.375 
Q 47.125 51.421875 43.28125 58.90625 
Q 39.453125 66.40625 31.78125 66.40625 
z
M 31.78125 74.21875 
Q 44.046875 74.21875 50.515625 64.515625 
Q 56.984375 54.828125 56.984375 36.375 
Q 56.984375 17.96875 50.515625 8.265625 
Q 44.046875 -1.421875 31.78125 -1.421875 
Q 19.53125 -1.421875 13.0625 8.265625 
Q 6.59375 17.96875 6.59375 36.375 
Q 6.59375 54.828125 13.0625 64.515625 
Q 19.53125 74.21875 31.78125 74.21875 
z
" id="DejaVuSans-48"/>
       <path d="M 10.6875 12.40625 
L 21 12.40625 
L 21 0 
L 10.6875 0 
z
" id="DejaVuSans-46"/>
      </defs>
      <g transform="translate(106.500938 592.270787)scale(0.18 -0.18)">
       <use xlink:href="#DejaVuSans-48"/>
       <use x="63.623047" xlink:href="#DejaVuSans-46"/>
       <use x="95.410156" xlink:href="#DejaVuSans-48"/>
       <use x="159.033203" xlink:href="#DejaVuSans-48"/>
      </g>
     </g>
    </g>
    <g id="xtick_2">
     <g id="line2d_2">
      <g>
       <use style="stroke:#000000;stroke-width:0.8;" x="196.277602" xlink:href="#m050f6257d0" y="571.5936"/>
      </g>
     </g>
     <g id="text_2">
      <!-- 0.05 -->
      <defs>
       <path d="M 10.796875 72.90625 
L 49.515625 72.90625 
L 49.515625 64.59375 
L 19.828125 64.59375 
L 19.828125 46.734375 
Q 21.96875 47.46875 24.109375 47.828125 
Q 26.265625 48.1875 28.421875 48.1875 
Q 40.625 48.1875 47.75 41.5 
Q 54.890625 34.8125 54.890625 23.390625 
Q 54.890625 11.625 47.5625 5.09375 
Q 40.234375 -1.421875 26.90625 -1.421875 
Q 22.3125 -1.421875 17.546875 -0.640625 
Q 12.796875 0.140625 7.71875 1.703125 
L 7.71875 11.625 
Q 12.109375 9.234375 16.796875 8.0625 
Q 21.484375 6.890625 26.703125 6.890625 
Q 35.15625 6.890625 40.078125 11.328125 
Q 45.015625 15.765625 45.015625 23.390625 
Q 45.015625 31 40.078125 35.4375 
Q 35.15625 39.890625 26.703125 39.890625 
Q 22.75 39.890625 18.8125 39.015625 
Q 14.890625 38.140625 10.796875 36.28125 
z
" id="DejaVuSans-53"/>
      </defs>
      <g transform="translate(176.238539 592.270787)scale(0.18 -0.18)">
       <use xlink:href="#DejaVuSans-48"/>
       <use x="63.623047" xlink:href="#DejaVuSans-46"/>
       <use x="95.410156" xlink:href="#DejaVuSans-48"/>
       <use x="159.033203" xlink:href="#DejaVuSans-53"/>
      </g>
     </g>
    </g>
    <g id="xtick_3">
     <g id="line2d_3">
      <g>
       <use style="stroke:#000000;stroke-width:0.8;" x="266.015204" xlink:href="#m050f6257d0" y="571.5936"/>
      </g>
     </g>
     <g id="text_3">
      <!-- 0.10 -->
      <defs>
       <path d="M 12.40625 8.296875 
L 28.515625 8.296875 
L 28.515625 63.921875 
L 10.984375 60.40625 
L 10.984375 69.390625 
L 28.421875 72.90625 
L 38.28125 72.90625 
L 38.28125 8.296875 
L 54.390625 8.296875 
L 54.390625 0 
L 12.40625 0 
z
" id="DejaVuSans-49"/>
      </defs>
      <g transform="translate(245.976141 592.270787)scale(0.18 -0.18)">
       <use xlink:href="#DejaVuSans-48"/>
       <use x="63.623047" xlink:href="#DejaVuSans-46"/>
       <use x="95.410156" xlink:href="#DejaVuSans-49"/>
       <use x="159.033203" xlink:href="#DejaVuSans-48"/>
      </g>
     </g>
    </g>
    <g id="xtick_4">
     <g id="line2d_4">
      <g>
       <use style="stroke:#000000;stroke-width:0.8;" x="335.752806" xlink:href="#m050f6257d0" y="571.5936"/>
      </g>
     </g>
     <g id="text_4">
      <!-- 0.15 -->
      <g transform="translate(315.713743 592.270787)scale(0.18 -0.18)">
       <use xlink:href="#DejaVuSans-48"/>
       <use x="63.623047" xlink:href="#DejaVuSans-46"/>
       <use x="95.410156" xlink:href="#DejaVuSans-49"/>
       <use x="159.033203" xlink:href="#DejaVuSans-53"/>
      </g>
     </g>
    </g>
    <g id="xtick_5">
     <g id="line2d_5">
      <g>
       <use style="stroke:#000000;stroke-width:0.8;" x="405.490407" xlink:href="#m050f6257d0" y="571.5936"/>
      </g>
     </g>
     <g id="text_5">
      <!-- 0.20 -->
      <defs>
       <path d="M 19.1875 8.296875 
L 53.609375 8.296875 
L 53.609375 0 
L 7.328125 0 
L 7.328125 8.296875 
Q 12.9375 14.109375 22.625 23.890625 
Q 32.328125 33.6875 34.8125 36.53125 
Q 39.546875 41.84375 41.421875 45.53125 
Q 43.3125 49.21875 43.3125 52.78125 
Q 43.3125 58.59375 39.234375 62.25 
Q 35.15625 65.921875 28.609375 65.921875 
Q 23.96875 65.921875 18.8125 64.3125 
Q 13.671875 62.703125 7.8125 59.421875 
L 7.8125 69.390625 
Q 13.765625 71.78125 18.9375 73 
Q 24.125 74.21875 28.421875 74.21875 
Q 39.75 74.21875 46.484375 68.546875 
Q 53.21875 62.890625 53.21875 53.421875 
Q 53.21875 48.921875 51.53125 44.890625 
Q 49.859375 40.875 45.40625 35.40625 
Q 44.1875 33.984375 37.640625 27.21875 
Q 31.109375 20.453125 19.1875 8.296875 
z
" id="DejaVuSans-50"/>
      </defs>
      <g transform="translate(385.451345 592.270787)scale(0.18 -0.18)">
       <use xlink:href="#DejaVuSans-48"/>
       <use x="63.623047" xlink:href="#DejaVuSans-46"/>
       <use x="95.410156" xlink:href="#DejaVuSans-50"/>
       <use x="159.033203" xlink:href="#DejaVuSans-48"/>
      </g>
     </g>
    </g>
    <g id="xtick_6">
     <g id="line2d_6">
      <g>
       <use style="stroke:#000000;stroke-width:0.8;" x="475.228009" xlink:href="#m050f6257d0" y="571.5936"/>
      </g>
     </g>
     <g id="text_6">
      <!-- 0.25 -->
      <g transform="translate(455.188947 592.270787)scale(0.18 -0.18)">
       <use xlink:href="#DejaVuSans-48"/>
       <use x="63.623047" xlink:href="#DejaVuSans-46"/>
       <use x="95.410156" xlink:href="#DejaVuSans-50"/>
       <use x="159.033203" xlink:href="#DejaVuSans-53"/>
      </g>
     </g>
    </g>
    <g id="xtick_7">
     <g id="line2d_7">
      <g>
       <use style="stroke:#000000;stroke-width:0.8;" x="544.965611" xlink:href="#m050f6257d0" y="571.5936"/>
      </g>
     </g>
     <g id="text_7">
      <!-- 0.30 -->
      <defs>
       <path d="M 40.578125 39.3125 
Q 47.65625 37.796875 51.625 33 
Q 55.609375 28.21875 55.609375 21.1875 
Q 55.609375 10.40625 48.1875 4.484375 
Q 40.765625 -1.421875 27.09375 -1.421875 
Q 22.515625 -1.421875 17.65625 -0.515625 
Q 12.796875 0.390625 7.625 2.203125 
L 7.625 11.71875 
Q 11.71875 9.328125 16.59375 8.109375 
Q 21.484375 6.890625 26.8125 6.890625 
Q 36.078125 6.890625 40.9375 10.546875 
Q 45.796875 14.203125 45.796875 21.1875 
Q 45.796875 27.640625 41.28125 31.265625 
Q 36.765625 34.90625 28.71875 34.90625 
L 20.21875 34.90625 
L 20.21875 43.015625 
L 29.109375 43.015625 
Q 36.375 43.015625 40.234375 45.921875 
Q 44.09375 48.828125 44.09375 54.296875 
Q 44.09375 59.90625 40.109375 62.90625 
Q 36.140625 65.921875 28.71875 65.921875 
Q 24.65625 65.921875 20.015625 65.03125 
Q 15.375 64.15625 9.8125 62.3125 
L 9.8125 71.09375 
Q 15.4375 72.65625 20.34375 73.4375 
Q 25.25 74.21875 29.59375 74.21875 
Q 40.828125 74.21875 47.359375 69.109375 
Q 53.90625 64.015625 53.90625 55.328125 
Q 53.90625 49.265625 50.4375 45.09375 
Q 46.96875 40.921875 40.578125 39.3125 
z
" id="DejaVuSans-51"/>
      </defs>
      <g transform="translate(524.926549 592.270787)scale(0.18 -0.18)">
       <use xlink:href="#DejaVuSans-48"/>
       <use x="63.623047" xlink:href="#DejaVuSans-46"/>
       <use x="95.410156" xlink:href="#DejaVuSans-51"/>
       <use x="159.033203" xlink:href="#DejaVuSans-48"/>
      </g>
     </g>
    </g>
    <g id="xtick_8">
     <g id="line2d_8">
      <g>
       <use style="stroke:#000000;stroke-width:0.8;" x="614.703213" xlink:href="#m050f6257d0" y="571.5936"/>
      </g>
     </g>
     <g id="text_8">
      <!-- 0.35 -->
      <g transform="translate(594.66415 592.270787)scale(0.18 -0.18)">
       <use xlink:href="#DejaVuSans-48"/>
       <use x="63.623047" xlink:href="#DejaVuSans-46"/>
       <use x="95.410156" xlink:href="#DejaVuSans-51"/>
       <use x="159.033203" xlink:href="#DejaVuSans-53"/>
      </g>
     </g>
    </g>
    <g id="xtick_9">
     <g id="line2d_9">
      <g>
       <use style="stroke:#000000;stroke-width:0.8;" x="684.440815" xlink:href="#m050f6257d0" y="571.5936"/>
      </g>
     </g>
     <g id="text_9">
      <!-- 0.40 -->
      <defs>
       <path d="M 37.796875 64.3125 
L 12.890625 25.390625 
L 37.796875 25.390625 
z
M 35.203125 72.90625 
L 47.609375 72.90625 
L 47.609375 25.390625 
L 58.015625 25.390625 
L 58.015625 17.1875 
L 47.609375 17.1875 
L 47.609375 0 
L 37.796875 0 
L 37.796875 17.1875 
L 4.890625 17.1875 
L 4.890625 26.703125 
z
" id="DejaVuSans-52"/>
      </defs>
      <g transform="translate(664.401752 592.270787)scale(0.18 -0.18)">
       <use xlink:href="#DejaVuSans-48"/>
       <use x="63.623047" xlink:href="#DejaVuSans-46"/>
       <use x="95.410156" xlink:href="#DejaVuSans-52"/>
       <use x="159.033203" xlink:href="#DejaVuSans-48"/>
      </g>
     </g>
    </g>
    <g id="text_10">
     <!-- $x$ -->
     <defs>
      <path d="M 60.015625 54.6875 
L 34.90625 27.875 
L 50.296875 0 
L 39.984375 0 
L 28.421875 21.6875 
L 8.296875 0 
L -2.59375 0 
L 24.3125 28.8125 
L 10.015625 54.6875 
L 20.3125 54.6875 
L 30.8125 34.90625 
L 49.125 54.6875 
z
" id="DejaVuSans-Oblique-120"/>
     </defs>
     <g transform="translate(434.9592 613.691413)scale(0.18 -0.18)">
      <use transform="translate(0 0.3125)" xlink:href="#DejaVuSans-Oblique-120"/>
     </g>
    </g>
   </g>
   <g id="matplotlib.axis_2">
    <g id="ytick_1">
     <g id="line2d_10">
      <defs>
       <path d="M 0 0 
L -3.5 0 
" id="ma9ccf7761e" style="stroke:#000000;stroke-width:0.8;"/>
      </defs>
      <g>
       <use style="stroke:#000000;stroke-width:0.8;" x="126.54" xlink:href="#ma9ccf7761e" y="571.5936"/>
      </g>
     </g>
     <g id="text_11">
      <!-- 0 -->
      <g transform="translate(108.0875 578.432194)scale(0.18 -0.18)">
       <use xlink:href="#DejaVuSans-48"/>
      </g>
     </g>
    </g>
    <g id="ytick_2">
     <g id="line2d_11">
      <g>
       <use style="stroke:#000000;stroke-width:0.8;" x="126.54" xlink:href="#ma9ccf7761e" y="492.887534"/>
      </g>
     </g>
     <g id="text_12">
      <!-- 1 -->
      <g transform="translate(108.0875 499.726127)scale(0.18 -0.18)">
       <use xlink:href="#DejaVuSans-49"/>
      </g>
     </g>
    </g>
    <g id="ytick_3">
     <g id="line2d_12">
      <g>
       <use style="stroke:#000000;stroke-width:0.8;" x="126.54" xlink:href="#ma9ccf7761e" y="414.181467"/>
      </g>
     </g>
     <g id="text_13">
      <!-- 2 -->
      <g transform="translate(108.0875 421.020061)scale(0.18 -0.18)">
       <use xlink:href="#DejaVuSans-50"/>
      </g>
     </g>
    </g>
    <g id="ytick_4">
     <g id="line2d_13">
      <g>
       <use style="stroke:#000000;stroke-width:0.8;" x="126.54" xlink:href="#ma9ccf7761e" y="335.475401"/>
      </g>
     </g>
     <g id="text_14">
      <!-- 3 -->
      <g transform="translate(108.0875 342.313995)scale(0.18 -0.18)">
       <use xlink:href="#DejaVuSans-51"/>
      </g>
     </g>
    </g>
    <g id="ytick_5">
     <g id="line2d_14">
      <g>
       <use style="stroke:#000000;stroke-width:0.8;" x="126.54" xlink:href="#ma9ccf7761e" y="256.769334"/>
      </g>
     </g>
     <g id="text_15">
      <!-- 4 -->
      <g transform="translate(108.0875 263.607928)scale(0.18 -0.18)">
       <use xlink:href="#DejaVuSans-52"/>
      </g>
     </g>
    </g>
    <g id="ytick_6">
     <g id="line2d_15">
      <g>
       <use style="stroke:#000000;stroke-width:0.8;" x="126.54" xlink:href="#ma9ccf7761e" y="178.063268"/>
      </g>
     </g>
     <g id="text_16">
      <!-- 5 -->
      <g transform="translate(108.0875 184.901862)scale(0.18 -0.18)">
       <use xlink:href="#DejaVuSans-53"/>
      </g>
     </g>
    </g>
    <g id="ytick_7">
     <g id="line2d_16">
      <g>
       <use style="stroke:#000000;stroke-width:0.8;" x="126.54" xlink:href="#ma9ccf7761e" y="99.357202"/>
      </g>
     </g>
     <g id="text_17">
      <!-- 6 -->
      <defs>
       <path d="M 33.015625 40.375 
Q 26.375 40.375 22.484375 35.828125 
Q 18.609375 31.296875 18.609375 23.390625 
Q 18.609375 15.53125 22.484375 10.953125 
Q 26.375 6.390625 33.015625 6.390625 
Q 39.65625 6.390625 43.53125 10.953125 
Q 47.40625 15.53125 47.40625 23.390625 
Q 47.40625 31.296875 43.53125 35.828125 
Q 39.65625 40.375 33.015625 40.375 
z
M 52.59375 71.296875 
L 52.59375 62.3125 
Q 48.875 64.0625 45.09375 64.984375 
Q 41.3125 65.921875 37.59375 65.921875 
Q 27.828125 65.921875 22.671875 59.328125 
Q 17.53125 52.734375 16.796875 39.40625 
Q 19.671875 43.65625 24.015625 45.921875 
Q 28.375 48.1875 33.59375 48.1875 
Q 44.578125 48.1875 50.953125 41.515625 
Q 57.328125 34.859375 57.328125 23.390625 
Q 57.328125 12.15625 50.6875 5.359375 
Q 44.046875 -1.421875 33.015625 -1.421875 
Q 20.359375 -1.421875 13.671875 8.265625 
Q 6.984375 17.96875 6.984375 36.375 
Q 6.984375 53.65625 15.1875 63.9375 
Q 23.390625 74.21875 37.203125 74.21875 
Q 40.921875 74.21875 44.703125 73.484375 
Q 48.484375 72.75 52.59375 71.296875 
z
" id="DejaVuSans-54"/>
      </defs>
      <g transform="translate(108.0875 106.195795)scale(0.18 -0.18)">
       <use xlink:href="#DejaVuSans-54"/>
      </g>
     </g>
    </g>
    <g id="text_18">
     <!-- $\theta$ -->
     <defs>
      <path d="M 45.515625 34.671875 
L 14.453125 34.671875 
Q 12.359375 20.0625 14.5 13.875 
Q 17.1875 6.25 24.46875 6.25 
Q 31.78125 6.25 37.359375 13.921875 
Q 42.234375 20.65625 45.515625 34.671875 
z
M 47.015625 42.96875 
Q 48.34375 56.84375 46.625 61.71875 
Q 43.953125 69.4375 36.765625 69.4375 
Q 29.296875 69.4375 23.828125 61.8125 
Q 19.53125 55.671875 16.15625 42.96875 
z
M 38.1875 76.765625 
Q 49.90625 76.765625 54.59375 66.40625 
Q 59.28125 56.109375 55.71875 37.84375 
Q 52.203125 19.625 43.453125 9.28125 
Q 34.765625 -1.125 23.046875 -1.125 
Q 11.28125 -1.125 6.640625 9.28125 
Q 2 19.625 5.515625 37.84375 
Q 9.078125 56.109375 17.71875 66.40625 
Q 26.421875 76.765625 38.1875 76.765625 
z
" id="DejaVuSans-Oblique-952"/>
     </defs>
     <g transform="translate(100.344063 329.9112)rotate(-90)scale(0.18 -0.18)">
      <use transform="translate(0 0.234375)" xlink:href="#DejaVuSans-Oblique-952"/>
     </g>
    </g>
   </g>
   <g id="LineCollection_1">
    <path clip-path="url(#pf00beb7231)" d="M 126.54 389.400253 
L 159.5736 389.400253 
L 192.6072 389.400253 
L 225.6408 389.400253 
L 258.6744 389.400253 
L 291.708 389.400253 
L 324.7416 389.400253 
L 357.7752 389.400253 
L 390.8088 389.400253 
L 423.8424 389.400253 
L 456.876 389.400253 
L 489.9096 389.400253 
L 522.9432 389.400253 
L 555.9768 389.400253 
L 589.0104 389.400253 
L 622.044 389.400253 
L 655.0776 389.400253 
L 688.1112 389.400253 
L 721.1448 389.400253 
L 754.1784 389.400253 
" style="fill:none;stroke:#ff0000;stroke-width:1.5;"/>
    <path clip-path="url(#pf00beb7231)" d="M 754.1784 181.179284 
L 721.1448 181.179284 
L 688.1112 181.179284 
L 655.0776 181.179284 
L 622.044 181.179284 
L 589.0104 181.179284 
L 555.9768 181.179284 
L 522.9432 181.179284 
L 489.9096 181.179284 
L 456.876 181.179284 
L 423.8424 181.179284 
L 390.8088 181.179284 
L 357.7752 181.179284 
L 324.7416 181.179284 
L 291.708 181.179284 
L 258.6744 181.179284 
L 225.6408 181.179284 
L 192.6072 181.179284 
L 159.5736 181.179284 
L 126.54 181.179284 
" style="fill:none;stroke:#ff0000;stroke-width:1.5;"/>
   </g>
   <g id="LineCollection_2">
    <path clip-path="url(#pf00beb7231)" d="M 126.54 386.1468 
L 159.5736 386.1468 
L 192.6072 386.1468 
L 225.6408 386.1468 
L 258.6744 386.1468 
L 291.708 386.1468 
L 324.7416 386.1468 
L 357.7752 386.1468 
L 390.8088 386.1468 
L 423.8424 386.1468 
L 456.876 386.1468 
L 489.9096 386.1468 
L 522.9432 386.1468 
L 555.9768 386.1468 
L 589.0104 386.1468 
L 622.044 386.1468 
L 655.0776 386.1468 
L 688.1112 386.1468 
L 721.1448 386.1468 
L 754.1784 386.1468 
" style="fill:none;stroke:#ff2000;stroke-width:1.5;"/>
    <path clip-path="url(#pf00beb7231)" d="M 754.1784 184.432737 
L 721.1448 184.432737 
L 688.1112 184.432737 
L 655.0776 184.432737 
L 622.044 184.432737 
L 589.0104 184.432737 
L 555.9768 184.432737 
L 522.9432 184.432737 
L 489.9096 184.432737 
L 456.876 184.432737 
L 423.8424 184.432737 
L 390.8088 184.432737 
L 357.7752 184.432737 
L 324.7416 184.432737 
L 291.708 184.432737 
L 258.6744 184.432737 
L 225.6408 184.432737 
L 192.6072 184.432737 
L 159.5736 184.432737 
L 126.54 184.432737 
" style="fill:none;stroke:#ff2000;stroke-width:1.5;"/>
   </g>
   <g id="LineCollection_3">
    <path clip-path="url(#pf00beb7231)" d="M 126.54 382.893347 
L 159.5736 382.893347 
L 192.6072 382.893347 
L 225.6408 382.893347 
L 258.6744 382.893347 
L 291.708 382.893347 
L 324.7416 382.893347 
L 357.7752 382.893347 
L 390.8088 382.893347 
L 423.8424 382.893347 
L 456.876 382.893347 
L 489.9096 382.893347 
L 522.9432 382.893347 
L 555.9768 382.893347 
L 589.0104 382.893347 
L 622.044 382.893347 
L 655.0776 382.893347 
L 688.1112 382.893347 
L 721.1448 382.893347 
L 754.1784 382.893347 
" style="fill:none;stroke:#ff4000;stroke-width:1.5;"/>
    <path clip-path="url(#pf00beb7231)" d="M 754.1784 187.686189 
L 721.1448 187.686189 
L 688.1112 187.686189 
L 655.0776 187.686189 
L 622.044 187.686189 
L 589.0104 187.686189 
L 555.9768 187.686189 
L 522.9432 187.686189 
L 489.9096 187.686189 
L 456.876 187.686189 
L 423.8424 187.686189 
L 390.8088 187.686189 
L 357.7752 187.686189 
L 324.7416 187.686189 
L 291.708 187.686189 
L 258.6744 187.686189 
L 225.6408 187.686189 
L 192.6072 187.686189 
L 159.5736 187.686189 
L 126.54 187.686189 
" style="fill:none;stroke:#ff4000;stroke-width:1.5;"/>
   </g>
   <g id="LineCollection_4">
    <path clip-path="url(#pf00beb7231)" d="M 126.54 379.639895 
L 159.5736 379.639895 
L 192.6072 379.639895 
L 225.6408 379.639895 
L 258.6744 379.639895 
L 291.708 379.639895 
L 324.7416 379.639895 
L 357.7752 379.639895 
L 390.8088 379.639895 
L 423.8424 379.639895 
L 456.876 379.639895 
L 489.9096 379.639895 
L 522.9432 379.639895 
L 555.9768 379.639895 
L 589.0104 379.639895 
L 622.044 379.639895 
L 655.0776 379.639895 
L 688.1112 379.639895 
L 721.1448 379.639895 
L 754.1784 379.639895 
" style="fill:none;stroke:#ff6000;stroke-width:1.5;"/>
    <path clip-path="url(#pf00beb7231)" d="M 754.1784 190.939642 
L 721.1448 190.939642 
L 688.1112 190.939642 
L 655.0776 190.939642 
L 622.044 190.939642 
L 589.0104 190.939642 
L 555.9768 190.939642 
L 522.9432 190.939642 
L 489.9096 190.939642 
L 456.876 190.939642 
L 423.8424 190.939642 
L 390.8088 190.939642 
L 357.7752 190.939642 
L 324.7416 190.939642 
L 291.708 190.939642 
L 258.6744 190.939642 
L 225.6408 190.939642 
L 192.6072 190.939642 
L 159.5736 190.939642 
L 126.54 190.939642 
" style="fill:none;stroke:#ff6000;stroke-width:1.5;"/>
   </g>
   <g id="LineCollection_5">
    <path clip-path="url(#pf00beb7231)" d="M 126.54 376.386442 
L 159.5736 376.386442 
L 192.6072 376.386442 
L 225.6408 376.386442 
L 258.6744 376.386442 
L 291.708 376.386442 
L 324.7416 376.386442 
L 357.7752 376.386442 
L 390.8088 376.386442 
L 423.8424 376.386442 
L 456.876 376.386442 
L 489.9096 376.386442 
L 522.9432 376.386442 
L 555.9768 376.386442 
L 589.0104 376.386442 
L 622.044 376.386442 
L 655.0776 376.386442 
L 688.1112 376.386442 
L 721.1448 376.386442 
L 754.1784 376.386442 
" style="fill:none;stroke:#ff8000;stroke-width:1.5;"/>
    <path clip-path="url(#pf00beb7231)" d="M 754.1784 194.193095 
L 721.1448 194.193095 
L 688.1112 194.193095 
L 655.0776 194.193095 
L 622.044 194.193095 
L 589.0104 194.193095 
L 555.9768 194.193095 
L 522.9432 194.193095 
L 489.9096 194.193095 
L 456.876 194.193095 
L 423.8424 194.193095 
L 390.8088 194.193095 
L 357.7752 194.193095 
L 324.7416 194.193095 
L 291.708 194.193095 
L 258.6744 194.193095 
L 225.6408 194.193095 
L 192.6072 194.193095 
L 159.5736 194.193095 
L 126.54 194.193095 
" style="fill:none;stroke:#ff8000;stroke-width:1.5;"/>
   </g>
   <g id="LineCollection_6">
    <path clip-path="url(#pf00beb7231)" d="M 126.54 373.132989 
L 159.5736 373.132989 
L 192.6072 373.132989 
L 225.6408 373.132989 
L 258.6744 373.132989 
L 291.708 373.132989 
L 324.7416 373.132989 
L 357.7752 373.132989 
L 390.8088 373.132989 
L 423.8424 373.132989 
L 456.876 373.132989 
L 489.9096 373.132989 
L 522.9432 373.132989 
L 555.9768 373.132989 
L 589.0104 373.132989 
L 622.044 373.132989 
L 655.0776 373.132989 
L 688.1112 373.132989 
L 721.1448 373.132989 
L 754.1784 373.132989 
" style="fill:none;stroke:#ffa000;stroke-width:1.5;"/>
    <path clip-path="url(#pf00beb7231)" d="M 754.1784 197.446547 
L 721.1448 197.446547 
L 688.1112 197.446547 
L 655.0776 197.446547 
L 622.044 197.446547 
L 589.0104 197.446547 
L 555.9768 197.446547 
L 522.9432 197.446547 
L 489.9096 197.446547 
L 456.876 197.446547 
L 423.8424 197.446547 
L 390.8088 197.446547 
L 357.7752 197.446547 
L 324.7416 197.446547 
L 291.708 197.446547 
L 258.6744 197.446547 
L 225.6408 197.446547 
L 192.6072 197.446547 
L 159.5736 197.446547 
L 126.54 197.446547 
" style="fill:none;stroke:#ffa000;stroke-width:1.5;"/>
   </g>
   <g id="LineCollection_7">
    <path clip-path="url(#pf00beb7231)" d="M 126.54 369.879537 
L 159.5736 369.879537 
L 192.6072 369.879537 
L 225.6408 369.879537 
L 258.6744 369.879537 
L 291.708 369.879537 
L 324.7416 369.879537 
L 357.7752 369.879537 
L 390.8088 369.879537 
L 423.8424 369.879537 
L 456.876 369.879537 
L 489.9096 369.879537 
L 522.9432 369.879537 
L 555.9768 369.879537 
L 589.0104 369.879537 
L 622.044 369.879537 
L 655.0776 369.879537 
L 688.1112 369.879537 
L 721.1448 369.879537 
L 754.1784 369.879537 
" style="fill:none;stroke:#ffc000;stroke-width:1.5;"/>
    <path clip-path="url(#pf00beb7231)" d="M 754.1784 200.7 
L 721.1448 200.7 
L 688.1112 200.7 
L 655.0776 200.7 
L 622.044 200.7 
L 589.0104 200.7 
L 555.9768 200.7 
L 522.9432 200.7 
L 489.9096 200.7 
L 456.876 200.7 
L 423.8424 200.7 
L 390.8088 200.7 
L 357.7752 200.7 
L 324.7416 200.7 
L 291.708 200.7 
L 258.6744 200.7 
L 225.6408 200.7 
L 192.6072 200.7 
L 159.5736 200.7 
L 126.54 200.7 
" style="fill:none;stroke:#ffc000;stroke-width:1.5;"/>
   </g>
   <g id="LineCollection_8">
    <path clip-path="url(#pf00beb7231)" d="M 126.54 366.626084 
L 159.5736 366.626084 
L 192.6072 366.626084 
L 225.6408 366.626084 
L 258.6744 366.626084 
L 291.708 366.626084 
L 324.7416 366.626084 
L 357.7752 366.626084 
L 390.8088 366.626084 
L 423.8424 366.626084 
L 456.876 366.626084 
L 489.9096 366.626084 
L 522.9432 366.626084 
L 555.9768 366.626084 
L 589.0104 366.626084 
L 622.044 366.626084 
L 655.0776 366.626084 
L 688.1112 366.626084 
L 721.1448 366.626084 
L 754.1784 366.626084 
" style="fill:none;stroke:#ffe000;stroke-width:1.5;"/>
    <path clip-path="url(#pf00beb7231)" d="M 754.1784 203.953453 
L 721.1448 203.953453 
L 688.1112 203.953453 
L 655.0776 203.953453 
L 622.044 203.953453 
L 589.0104 203.953453 
L 555.9768 203.953453 
L 522.9432 203.953453 
L 489.9096 203.953453 
L 456.876 203.953453 
L 423.8424 203.953453 
L 390.8088 203.953453 
L 357.7752 203.953453 
L 324.7416 203.953453 
L 291.708 203.953453 
L 258.6744 203.953453 
L 225.6408 203.953453 
L 192.6072 203.953453 
L 159.5736 203.953453 
L 126.54 203.953453 
" style="fill:none;stroke:#ffe000;stroke-width:1.5;"/>
   </g>
   <g id="LineCollection_9"/>
   <g id="patch_3">
    <path d="M 126.54 571.5936 
L 126.54 77.0688 
" style="fill:none;stroke:#000000;stroke-linecap:square;stroke-linejoin:miter;stroke-width:0.8;"/>
   </g>
   <g id="patch_4">
    <path d="M 754.1784 571.5936 
L 754.1784 77.0688 
" style="fill:none;stroke:#000000;stroke-linecap:square;stroke-linejoin:miter;stroke-width:0.8;"/>
   </g>
   <g id="patch_5">
    <path d="M 126.54 571.5936 
L 754.1784 571.5936 
" style="fill:none;stroke:#000000;stroke-linecap:square;stroke-linejoin:miter;stroke-width:0.8;"/>
   </g>
   <g id="patch_6">
    <path d="M 126.54 77.0688 
L 754.1784 77.0688 
" style="fill:none;stroke:#000000;stroke-linecap:square;stroke-linejoin:miter;stroke-width:0.8;"/>
   </g>
   <g id="text_19">
    <!-- Controller choice based on gap function at $[\dot{x}, \dot{\theta}] = [0,0] $ -->
    <defs>
     <path d="M 64.40625 67.28125 
L 64.40625 56.890625 
Q 59.421875 61.53125 53.78125 63.8125 
Q 48.140625 66.109375 41.796875 66.109375 
Q 29.296875 66.109375 22.65625 58.46875 
Q 16.015625 50.828125 16.015625 36.375 
Q 16.015625 21.96875 22.65625 14.328125 
Q 29.296875 6.6875 41.796875 6.6875 
Q 48.140625 6.6875 53.78125 8.984375 
Q 59.421875 11.28125 64.40625 15.921875 
L 64.40625 5.609375 
Q 59.234375 2.09375 53.4375 0.328125 
Q 47.65625 -1.421875 41.21875 -1.421875 
Q 24.65625 -1.421875 15.125 8.703125 
Q 5.609375 18.84375 5.609375 36.375 
Q 5.609375 53.953125 15.125 64.078125 
Q 24.65625 74.21875 41.21875 74.21875 
Q 47.75 74.21875 53.53125 72.484375 
Q 59.328125 70.75 64.40625 67.28125 
z
" id="DejaVuSans-67"/>
     <path d="M 30.609375 48.390625 
Q 23.390625 48.390625 19.1875 42.75 
Q 14.984375 37.109375 14.984375 27.296875 
Q 14.984375 17.484375 19.15625 11.84375 
Q 23.34375 6.203125 30.609375 6.203125 
Q 37.796875 6.203125 41.984375 11.859375 
Q 46.1875 17.53125 46.1875 27.296875 
Q 46.1875 37.015625 41.984375 42.703125 
Q 37.796875 48.390625 30.609375 48.390625 
z
M 30.609375 56 
Q 42.328125 56 49.015625 48.375 
Q 55.71875 40.765625 55.71875 27.296875 
Q 55.71875 13.875 49.015625 6.21875 
Q 42.328125 -1.421875 30.609375 -1.421875 
Q 18.84375 -1.421875 12.171875 6.21875 
Q 5.515625 13.875 5.515625 27.296875 
Q 5.515625 40.765625 12.171875 48.375 
Q 18.84375 56 30.609375 56 
z
" id="DejaVuSans-111"/>
     <path d="M 54.890625 33.015625 
L 54.890625 0 
L 45.90625 0 
L 45.90625 32.71875 
Q 45.90625 40.484375 42.875 44.328125 
Q 39.84375 48.1875 33.796875 48.1875 
Q 26.515625 48.1875 22.3125 43.546875 
Q 18.109375 38.921875 18.109375 30.90625 
L 18.109375 0 
L 9.078125 0 
L 9.078125 54.6875 
L 18.109375 54.6875 
L 18.109375 46.1875 
Q 21.34375 51.125 25.703125 53.5625 
Q 30.078125 56 35.796875 56 
Q 45.21875 56 50.046875 50.171875 
Q 54.890625 44.34375 54.890625 33.015625 
z
" id="DejaVuSans-110"/>
     <path d="M 18.3125 70.21875 
L 18.3125 54.6875 
L 36.8125 54.6875 
L 36.8125 47.703125 
L 18.3125 47.703125 
L 18.3125 18.015625 
Q 18.3125 11.328125 20.140625 9.421875 
Q 21.96875 7.515625 27.59375 7.515625 
L 36.8125 7.515625 
L 36.8125 0 
L 27.59375 0 
Q 17.1875 0 13.234375 3.875 
Q 9.28125 7.765625 9.28125 18.015625 
L 9.28125 47.703125 
L 2.6875 47.703125 
L 2.6875 54.6875 
L 9.28125 54.6875 
L 9.28125 70.21875 
z
" id="DejaVuSans-116"/>
     <path d="M 41.109375 46.296875 
Q 39.59375 47.171875 37.8125 47.578125 
Q 36.03125 48 33.890625 48 
Q 26.265625 48 22.1875 43.046875 
Q 18.109375 38.09375 18.109375 28.8125 
L 18.109375 0 
L 9.078125 0 
L 9.078125 54.6875 
L 18.109375 54.6875 
L 18.109375 46.1875 
Q 20.953125 51.171875 25.484375 53.578125 
Q 30.03125 56 36.53125 56 
Q 37.453125 56 38.578125 55.875 
Q 39.703125 55.765625 41.0625 55.515625 
z
" id="DejaVuSans-114"/>
     <path d="M 9.421875 75.984375 
L 18.40625 75.984375 
L 18.40625 0 
L 9.421875 0 
z
" id="DejaVuSans-108"/>
     <path d="M 56.203125 29.59375 
L 56.203125 25.203125 
L 14.890625 25.203125 
Q 15.484375 15.921875 20.484375 11.0625 
Q 25.484375 6.203125 34.421875 6.203125 
Q 39.59375 6.203125 44.453125 7.46875 
Q 49.3125 8.734375 54.109375 11.28125 
L 54.109375 2.78125 
Q 49.265625 0.734375 44.1875 -0.34375 
Q 39.109375 -1.421875 33.890625 -1.421875 
Q 20.796875 -1.421875 13.15625 6.1875 
Q 5.515625 13.8125 5.515625 26.8125 
Q 5.515625 40.234375 12.765625 48.109375 
Q 20.015625 56 32.328125 56 
Q 43.359375 56 49.78125 48.890625 
Q 56.203125 41.796875 56.203125 29.59375 
z
M 47.21875 32.234375 
Q 47.125 39.59375 43.09375 43.984375 
Q 39.0625 48.390625 32.421875 48.390625 
Q 24.90625 48.390625 20.390625 44.140625 
Q 15.875 39.890625 15.1875 32.171875 
z
" id="DejaVuSans-101"/>
     <path id="DejaVuSans-32"/>
     <path d="M 48.78125 52.59375 
L 48.78125 44.1875 
Q 44.96875 46.296875 41.140625 47.34375 
Q 37.3125 48.390625 33.40625 48.390625 
Q 24.65625 48.390625 19.8125 42.84375 
Q 14.984375 37.3125 14.984375 27.296875 
Q 14.984375 17.28125 19.8125 11.734375 
Q 24.65625 6.203125 33.40625 6.203125 
Q 37.3125 6.203125 41.140625 7.25 
Q 44.96875 8.296875 48.78125 10.40625 
L 48.78125 2.09375 
Q 45.015625 0.34375 40.984375 -0.53125 
Q 36.96875 -1.421875 32.421875 -1.421875 
Q 20.0625 -1.421875 12.78125 6.34375 
Q 5.515625 14.109375 5.515625 27.296875 
Q 5.515625 40.671875 12.859375 48.328125 
Q 20.21875 56 33.015625 56 
Q 37.15625 56 41.109375 55.140625 
Q 45.0625 54.296875 48.78125 52.59375 
z
" id="DejaVuSans-99"/>
     <path d="M 54.890625 33.015625 
L 54.890625 0 
L 45.90625 0 
L 45.90625 32.71875 
Q 45.90625 40.484375 42.875 44.328125 
Q 39.84375 48.1875 33.796875 48.1875 
Q 26.515625 48.1875 22.3125 43.546875 
Q 18.109375 38.921875 18.109375 30.90625 
L 18.109375 0 
L 9.078125 0 
L 9.078125 75.984375 
L 18.109375 75.984375 
L 18.109375 46.1875 
Q 21.34375 51.125 25.703125 53.5625 
Q 30.078125 56 35.796875 56 
Q 45.21875 56 50.046875 50.171875 
Q 54.890625 44.34375 54.890625 33.015625 
z
" id="DejaVuSans-104"/>
     <path d="M 9.421875 54.6875 
L 18.40625 54.6875 
L 18.40625 0 
L 9.421875 0 
z
M 9.421875 75.984375 
L 18.40625 75.984375 
L 18.40625 64.59375 
L 9.421875 64.59375 
z
" id="DejaVuSans-105"/>
     <path d="M 48.6875 27.296875 
Q 48.6875 37.203125 44.609375 42.84375 
Q 40.53125 48.484375 33.40625 48.484375 
Q 26.265625 48.484375 22.1875 42.84375 
Q 18.109375 37.203125 18.109375 27.296875 
Q 18.109375 17.390625 22.1875 11.75 
Q 26.265625 6.109375 33.40625 6.109375 
Q 40.53125 6.109375 44.609375 11.75 
Q 48.6875 17.390625 48.6875 27.296875 
z
M 18.109375 46.390625 
Q 20.953125 51.265625 25.265625 53.625 
Q 29.59375 56 35.59375 56 
Q 45.5625 56 51.78125 48.09375 
Q 58.015625 40.1875 58.015625 27.296875 
Q 58.015625 14.40625 51.78125 6.484375 
Q 45.5625 -1.421875 35.59375 -1.421875 
Q 29.59375 -1.421875 25.265625 0.953125 
Q 20.953125 3.328125 18.109375 8.203125 
L 18.109375 0 
L 9.078125 0 
L 9.078125 75.984375 
L 18.109375 75.984375 
z
" id="DejaVuSans-98"/>
     <path d="M 34.28125 27.484375 
Q 23.390625 27.484375 19.1875 25 
Q 14.984375 22.515625 14.984375 16.5 
Q 14.984375 11.71875 18.140625 8.90625 
Q 21.296875 6.109375 26.703125 6.109375 
Q 34.1875 6.109375 38.703125 11.40625 
Q 43.21875 16.703125 43.21875 25.484375 
L 43.21875 27.484375 
z
M 52.203125 31.203125 
L 52.203125 0 
L 43.21875 0 
L 43.21875 8.296875 
Q 40.140625 3.328125 35.546875 0.953125 
Q 30.953125 -1.421875 24.3125 -1.421875 
Q 15.921875 -1.421875 10.953125 3.296875 
Q 6 8.015625 6 15.921875 
Q 6 25.140625 12.171875 29.828125 
Q 18.359375 34.515625 30.609375 34.515625 
L 43.21875 34.515625 
L 43.21875 35.40625 
Q 43.21875 41.609375 39.140625 45 
Q 35.0625 48.390625 27.6875 48.390625 
Q 23 48.390625 18.546875 47.265625 
Q 14.109375 46.140625 10.015625 43.890625 
L 10.015625 52.203125 
Q 14.9375 54.109375 19.578125 55.046875 
Q 24.21875 56 28.609375 56 
Q 40.484375 56 46.34375 49.84375 
Q 52.203125 43.703125 52.203125 31.203125 
z
" id="DejaVuSans-97"/>
     <path d="M 44.28125 53.078125 
L 44.28125 44.578125 
Q 40.484375 46.53125 36.375 47.5 
Q 32.28125 48.484375 27.875 48.484375 
Q 21.1875 48.484375 17.84375 46.4375 
Q 14.5 44.390625 14.5 40.28125 
Q 14.5 37.15625 16.890625 35.375 
Q 19.28125 33.59375 26.515625 31.984375 
L 29.59375 31.296875 
Q 39.15625 29.25 43.1875 25.515625 
Q 47.21875 21.78125 47.21875 15.09375 
Q 47.21875 7.46875 41.1875 3.015625 
Q 35.15625 -1.421875 24.609375 -1.421875 
Q 20.21875 -1.421875 15.453125 -0.5625 
Q 10.6875 0.296875 5.421875 2 
L 5.421875 11.28125 
Q 10.40625 8.6875 15.234375 7.390625 
Q 20.0625 6.109375 24.8125 6.109375 
Q 31.15625 6.109375 34.5625 8.28125 
Q 37.984375 10.453125 37.984375 14.40625 
Q 37.984375 18.0625 35.515625 20.015625 
Q 33.0625 21.96875 24.703125 23.78125 
L 21.578125 24.515625 
Q 13.234375 26.265625 9.515625 29.90625 
Q 5.8125 33.546875 5.8125 39.890625 
Q 5.8125 47.609375 11.28125 51.796875 
Q 16.75 56 26.8125 56 
Q 31.78125 56 36.171875 55.265625 
Q 40.578125 54.546875 44.28125 53.078125 
z
" id="DejaVuSans-115"/>
     <path d="M 45.40625 46.390625 
L 45.40625 75.984375 
L 54.390625 75.984375 
L 54.390625 0 
L 45.40625 0 
L 45.40625 8.203125 
Q 42.578125 3.328125 38.25 0.953125 
Q 33.9375 -1.421875 27.875 -1.421875 
Q 17.96875 -1.421875 11.734375 6.484375 
Q 5.515625 14.40625 5.515625 27.296875 
Q 5.515625 40.1875 11.734375 48.09375 
Q 17.96875 56 27.875 56 
Q 33.9375 56 38.25 53.625 
Q 42.578125 51.265625 45.40625 46.390625 
z
M 14.796875 27.296875 
Q 14.796875 17.390625 18.875 11.75 
Q 22.953125 6.109375 30.078125 6.109375 
Q 37.203125 6.109375 41.296875 11.75 
Q 45.40625 17.390625 45.40625 27.296875 
Q 45.40625 37.203125 41.296875 42.84375 
Q 37.203125 48.484375 30.078125 48.484375 
Q 22.953125 48.484375 18.875 42.84375 
Q 14.796875 37.203125 14.796875 27.296875 
z
" id="DejaVuSans-100"/>
     <path d="M 45.40625 27.984375 
Q 45.40625 37.75 41.375 43.109375 
Q 37.359375 48.484375 30.078125 48.484375 
Q 22.859375 48.484375 18.828125 43.109375 
Q 14.796875 37.75 14.796875 27.984375 
Q 14.796875 18.265625 18.828125 12.890625 
Q 22.859375 7.515625 30.078125 7.515625 
Q 37.359375 7.515625 41.375 12.890625 
Q 45.40625 18.265625 45.40625 27.984375 
z
M 54.390625 6.78125 
Q 54.390625 -7.171875 48.1875 -13.984375 
Q 42 -20.796875 29.203125 -20.796875 
Q 24.46875 -20.796875 20.265625 -20.09375 
Q 16.0625 -19.390625 12.109375 -17.921875 
L 12.109375 -9.1875 
Q 16.0625 -11.328125 19.921875 -12.34375 
Q 23.78125 -13.375 27.78125 -13.375 
Q 36.625 -13.375 41.015625 -8.765625 
Q 45.40625 -4.15625 45.40625 5.171875 
L 45.40625 9.625 
Q 42.625 4.78125 38.28125 2.390625 
Q 33.9375 0 27.875 0 
Q 17.828125 0 11.671875 7.65625 
Q 5.515625 15.328125 5.515625 27.984375 
Q 5.515625 40.671875 11.671875 48.328125 
Q 17.828125 56 27.875 56 
Q 33.9375 56 38.28125 53.609375 
Q 42.625 51.21875 45.40625 46.390625 
L 45.40625 54.6875 
L 54.390625 54.6875 
z
" id="DejaVuSans-103"/>
     <path d="M 18.109375 8.203125 
L 18.109375 -20.796875 
L 9.078125 -20.796875 
L 9.078125 54.6875 
L 18.109375 54.6875 
L 18.109375 46.390625 
Q 20.953125 51.265625 25.265625 53.625 
Q 29.59375 56 35.59375 56 
Q 45.5625 56 51.78125 48.09375 
Q 58.015625 40.1875 58.015625 27.296875 
Q 58.015625 14.40625 51.78125 6.484375 
Q 45.5625 -1.421875 35.59375 -1.421875 
Q 29.59375 -1.421875 25.265625 0.953125 
Q 20.953125 3.328125 18.109375 8.203125 
z
M 48.6875 27.296875 
Q 48.6875 37.203125 44.609375 42.84375 
Q 40.53125 48.484375 33.40625 48.484375 
Q 26.265625 48.484375 22.1875 42.84375 
Q 18.109375 37.203125 18.109375 27.296875 
Q 18.109375 17.390625 22.1875 11.75 
Q 26.265625 6.109375 33.40625 6.109375 
Q 40.53125 6.109375 44.609375 11.75 
Q 48.6875 17.390625 48.6875 27.296875 
z
" id="DejaVuSans-112"/>
     <path d="M 37.109375 75.984375 
L 37.109375 68.5 
L 28.515625 68.5 
Q 23.6875 68.5 21.796875 66.546875 
Q 19.921875 64.59375 19.921875 59.515625 
L 19.921875 54.6875 
L 34.71875 54.6875 
L 34.71875 47.703125 
L 19.921875 47.703125 
L 19.921875 0 
L 10.890625 0 
L 10.890625 47.703125 
L 2.296875 47.703125 
L 2.296875 54.6875 
L 10.890625 54.6875 
L 10.890625 58.5 
Q 10.890625 67.625 15.140625 71.796875 
Q 19.390625 75.984375 28.609375 75.984375 
z
" id="DejaVuSans-102"/>
     <path d="M 8.5 21.578125 
L 8.5 54.6875 
L 17.484375 54.6875 
L 17.484375 21.921875 
Q 17.484375 14.15625 20.5 10.265625 
Q 23.53125 6.390625 29.59375 6.390625 
Q 36.859375 6.390625 41.078125 11.03125 
Q 45.3125 15.671875 45.3125 23.6875 
L 45.3125 54.6875 
L 54.296875 54.6875 
L 54.296875 0 
L 45.3125 0 
L 45.3125 8.40625 
Q 42.046875 3.421875 37.71875 1 
Q 33.40625 -1.421875 27.6875 -1.421875 
Q 18.265625 -1.421875 13.375 4.4375 
Q 8.5 10.296875 8.5 21.578125 
z
M 31.109375 56 
z
" id="DejaVuSans-117"/>
     <path d="M 8.59375 75.984375 
L 29.296875 75.984375 
L 29.296875 69 
L 17.578125 69 
L 17.578125 -6.203125 
L 29.296875 -6.203125 
L 29.296875 -13.1875 
L 8.59375 -13.1875 
z
" id="DejaVuSans-91"/>
     <path d="M -29.59375 75.984375 
L -20.609375 75.984375 
L -20.609375 64.59375 
L -29.59375 64.59375 
z
M -25 56 
z
" id="DejaVuSans-775"/>
     <path d="M 11.71875 12.40625 
L 22.015625 12.40625 
L 22.015625 4 
L 14.015625 -11.625 
L 7.71875 -11.625 
L 11.71875 4 
z
" id="DejaVuSans-44"/>
     <path d="M 30.421875 75.984375 
L 30.421875 -13.1875 
L 9.71875 -13.1875 
L 9.71875 -6.203125 
L 21.390625 -6.203125 
L 21.390625 69 
L 9.71875 69 
L 9.71875 75.984375 
z
" id="DejaVuSans-93"/>
     <path d="M 10.59375 45.40625 
L 73.1875 45.40625 
L 73.1875 37.203125 
L 10.59375 37.203125 
z
M 10.59375 25.484375 
L 73.1875 25.484375 
L 73.1875 17.1875 
L 10.59375 17.1875 
z
" id="DejaVuSans-61"/>
    </defs>
    <g transform="translate(188.8992 71.0688)scale(0.18 -0.18)">
     <use transform="translate(0 0.75)" xlink:href="#DejaVuSans-67"/>
     <use transform="translate(69.824219 0.75)" xlink:href="#DejaVuSans-111"/>
     <use transform="translate(131.005859 0.75)" xlink:href="#DejaVuSans-110"/>
     <use transform="translate(194.384766 0.75)" xlink:href="#DejaVuSans-116"/>
     <use transform="translate(233.59375 0.75)" xlink:href="#DejaVuSans-114"/>
     <use transform="translate(274.707031 0.75)" xlink:href="#DejaVuSans-111"/>
     <use transform="translate(335.888672 0.75)" xlink:href="#DejaVuSans-108"/>
     <use transform="translate(363.671875 0.75)" xlink:href="#DejaVuSans-108"/>
     <use transform="translate(391.455078 0.75)" xlink:href="#DejaVuSans-101"/>
     <use transform="translate(452.978516 0.75)" xlink:href="#DejaVuSans-114"/>
     <use transform="translate(494.091797 0.75)" xlink:href="#DejaVuSans-32"/>
     <use transform="translate(525.878906 0.75)" xlink:href="#DejaVuSans-99"/>
     <use transform="translate(580.859375 0.75)" xlink:href="#DejaVuSans-104"/>
     <use transform="translate(644.238281 0.75)" xlink:href="#DejaVuSans-111"/>
     <use transform="translate(705.419922 0.75)" xlink:href="#DejaVuSans-105"/>
     <use transform="translate(733.203125 0.75)" xlink:href="#DejaVuSans-99"/>
     <use transform="translate(788.183594 0.75)" xlink:href="#DejaVuSans-101"/>
     <use transform="translate(849.707031 0.75)" xlink:href="#DejaVuSans-32"/>
     <use transform="translate(881.494141 0.75)" xlink:href="#DejaVuSans-98"/>
     <use transform="translate(944.970703 0.75)" xlink:href="#DejaVuSans-97"/>
     <use transform="translate(1006.25 0.75)" xlink:href="#DejaVuSans-115"/>
     <use transform="translate(1058.349609 0.75)" xlink:href="#DejaVuSans-101"/>
     <use transform="translate(1119.873047 0.75)" xlink:href="#DejaVuSans-100"/>
     <use transform="translate(1183.349609 0.75)" xlink:href="#DejaVuSans-32"/>
     <use transform="translate(1215.136719 0.75)" xlink:href="#DejaVuSans-111"/>
     <use transform="translate(1276.318359 0.75)" xlink:href="#DejaVuSans-110"/>
     <use transform="translate(1339.697266 0.75)" xlink:href="#DejaVuSans-32"/>
     <use transform="translate(1371.484375 0.75)" xlink:href="#DejaVuSans-103"/>
     <use transform="translate(1434.960938 0.75)" xlink:href="#DejaVuSans-97"/>
     <use transform="translate(1496.240234 0.75)" xlink:href="#DejaVuSans-112"/>
     <use transform="translate(1559.716797 0.75)" xlink:href="#DejaVuSans-32"/>
     <use transform="translate(1591.503906 0.75)" xlink:href="#DejaVuSans-102"/>
     <use transform="translate(1626.708984 0.75)" xlink:href="#DejaVuSans-117"/>
     <use transform="translate(1690.087891 0.75)" xlink:href="#DejaVuSans-110"/>
     <use transform="translate(1753.466797 0.75)" xlink:href="#DejaVuSans-99"/>
     <use transform="translate(1808.447266 0.75)" xlink:href="#DejaVuSans-116"/>
     <use transform="translate(1847.65625 0.75)" xlink:href="#DejaVuSans-105"/>
     <use transform="translate(1875.439453 0.75)" xlink:href="#DejaVuSans-111"/>
     <use transform="translate(1936.621094 0.75)" xlink:href="#DejaVuSans-110"/>
     <use transform="translate(2000 0.75)" xlink:href="#DejaVuSans-32"/>
     <use transform="translate(2031.787109 0.75)" xlink:href="#DejaVuSans-97"/>
     <use transform="translate(2093.066406 0.75)" xlink:href="#DejaVuSans-116"/>
     <use transform="translate(2132.275391 0.75)" xlink:href="#DejaVuSans-32"/>
     <use transform="translate(2164.0625 0.75)" xlink:href="#DejaVuSans-91"/>
     <use transform="translate(2265.464844 11.9375)" xlink:href="#DejaVuSans-775"/>
     <use transform="translate(2203.076172 0.75)" xlink:href="#DejaVuSans-Oblique-120"/>
     <use transform="translate(2262.255859 0.75)" xlink:href="#DejaVuSans-44"/>
     <use transform="translate(2376.414551 34.015625)" xlink:href="#DejaVuSans-775"/>
     <use transform="translate(2313.525391 0.75)" xlink:href="#DejaVuSans-Oblique-952"/>
     <use transform="translate(2374.707031 0.75)" xlink:href="#DejaVuSans-93"/>
     <use transform="translate(2433.203125 0.75)" xlink:href="#DejaVuSans-61"/>
     <use transform="translate(2536.474609 0.75)" xlink:href="#DejaVuSans-91"/>
     <use transform="translate(2575.488281 0.75)" xlink:href="#DejaVuSans-48"/>
     <use transform="translate(2639.111328 0.75)" xlink:href="#DejaVuSans-44"/>
     <use transform="translate(2690.380859 0.75)" xlink:href="#DejaVuSans-48"/>
     <use transform="translate(2754.003906 0.75)" xlink:href="#DejaVuSans-93"/>
    </g>
   </g>
  </g>
  <g id="axes_2">
   <g id="patch_7">
    <path clip-path="url(#p7e9825f84c)" d="M 793.4058 571.5936 
L 793.4058 516.6464 
L 793.4058 132.016 
L 793.4058 77.0688 
L 818.13204 77.0688 
L 818.13204 132.016 
L 818.13204 516.6464 
L 818.13204 571.5936 
z
" style="fill:#ffffff;stroke:#ffffff;stroke-linejoin:miter;stroke-width:0.01;"/>
   </g>
   <g id="QuadMesh_1">
    <path clip-path="url(#p7e9825f84c)" d="M 793.4058 571.5936 
L 818.13204 571.5936 
L 818.13204 516.6464 
L 793.4058 516.6464 
L 793.4058 571.5936 
" style="fill:#f7f0f7;"/>
    <path clip-path="url(#p7e9825f84c)" d="M 793.4058 516.6464 
L 818.13204 516.6464 
L 818.13204 461.6992 
L 793.4058 461.6992 
L 793.4058 516.6464 
" style="fill:#e3e0ee;"/>
    <path clip-path="url(#p7e9825f84c)" d="M 793.4058 461.6992 
L 818.13204 461.6992 
L 818.13204 406.752 
L 793.4058 406.752 
L 793.4058 461.6992 
" style="fill:#c6cce3;"/>
    <path clip-path="url(#p7e9825f84c)" d="M 793.4058 406.752 
L 818.13204 406.752 
L 818.13204 351.8048 
L 793.4058 351.8048 
L 793.4058 406.752 
" style="fill:#a1bbda;"/>
    <path clip-path="url(#p7e9825f84c)" d="M 793.4058 351.8048 
L 818.13204 351.8048 
L 818.13204 296.8576 
L 793.4058 296.8576 
L 793.4058 351.8048 
" style="fill:#73a9cf;"/>
    <path clip-path="url(#p7e9825f84c)" d="M 793.4058 296.8576 
L 818.13204 296.8576 
L 818.13204 241.9104 
L 793.4058 241.9104 
L 793.4058 296.8576 
" style="fill:#3d93c2;"/>
    <path clip-path="url(#p7e9825f84c)" d="M 793.4058 241.9104 
L 818.13204 241.9104 
L 818.13204 186.9632 
L 793.4058 186.9632 
L 793.4058 241.9104 
" style="fill:#1077b4;"/>
    <path clip-path="url(#p7e9825f84c)" d="M 793.4058 186.9632 
L 818.13204 186.9632 
L 818.13204 132.016 
L 793.4058 132.016 
L 793.4058 186.9632 
" style="fill:#046198;"/>
    <path clip-path="url(#p7e9825f84c)" d="M 793.4058 132.016 
L 818.13204 132.016 
L 818.13204 77.0688 
L 793.4058 77.0688 
L 793.4058 132.016 
" style="fill:#03476f;"/>
   </g>
   <g id="matplotlib.axis_3"/>
   <g id="matplotlib.axis_4">
    <g id="ytick_8">
     <g id="line2d_17">
      <defs>
       <path d="M 0 0 
L 3.5 0 
" id="m08402ccfe9" style="stroke:#000000;stroke-width:0.8;"/>
      </defs>
      <g>
       <use style="stroke:#000000;stroke-width:0.8;" x="818.13204" xlink:href="#m08402ccfe9" y="571.5936"/>
      </g>
     </g>
     <g id="text_20">
      <!-- 0.16 -->
      <defs>
       <path d="M 10.59375 35.5 
L 73.1875 35.5 
L 73.1875 27.203125 
L 10.59375 27.203125 
z
" id="DejaVuSans-8722"/>
      </defs>
      <g transform="translate(825.13204 578.432194)scale(0.18 -0.18)">
       <use xlink:href="#DejaVuSans-8722"/>
       <use x="83.789062" xlink:href="#DejaVuSans-48"/>
       <use x="147.412109" xlink:href="#DejaVuSans-46"/>
       <use x="179.199219" xlink:href="#DejaVuSans-49"/>
       <use x="242.822266" xlink:href="#DejaVuSans-54"/>
      </g>
     </g>
    </g>
    <g id="ytick_9">
     <g id="line2d_18">
      <g>
       <use style="stroke:#000000;stroke-width:0.8;" x="818.13204" xlink:href="#m08402ccfe9" y="516.6464"/>
      </g>
     </g>
     <g id="text_21">
      <!-- 0.08 -->
      <defs>
       <path d="M 31.78125 34.625 
Q 24.75 34.625 20.71875 30.859375 
Q 16.703125 27.09375 16.703125 20.515625 
Q 16.703125 13.921875 20.71875 10.15625 
Q 24.75 6.390625 31.78125 6.390625 
Q 38.8125 6.390625 42.859375 10.171875 
Q 46.921875 13.96875 46.921875 20.515625 
Q 46.921875 27.09375 42.890625 30.859375 
Q 38.875 34.625 31.78125 34.625 
z
M 21.921875 38.8125 
Q 15.578125 40.375 12.03125 44.71875 
Q 8.5 49.078125 8.5 55.328125 
Q 8.5 64.0625 14.71875 69.140625 
Q 20.953125 74.21875 31.78125 74.21875 
Q 42.671875 74.21875 48.875 69.140625 
Q 55.078125 64.0625 55.078125 55.328125 
Q 55.078125 49.078125 51.53125 44.71875 
Q 48 40.375 41.703125 38.8125 
Q 48.828125 37.15625 52.796875 32.3125 
Q 56.78125 27.484375 56.78125 20.515625 
Q 56.78125 9.90625 50.3125 4.234375 
Q 43.84375 -1.421875 31.78125 -1.421875 
Q 19.734375 -1.421875 13.25 4.234375 
Q 6.78125 9.90625 6.78125 20.515625 
Q 6.78125 27.484375 10.78125 32.3125 
Q 14.796875 37.15625 21.921875 38.8125 
z
M 18.3125 54.390625 
Q 18.3125 48.734375 21.84375 45.5625 
Q 25.390625 42.390625 31.78125 42.390625 
Q 38.140625 42.390625 41.71875 45.5625 
Q 45.3125 48.734375 45.3125 54.390625 
Q 45.3125 60.0625 41.71875 63.234375 
Q 38.140625 66.40625 31.78125 66.40625 
Q 25.390625 66.40625 21.84375 63.234375 
Q 18.3125 60.0625 18.3125 54.390625 
z
" id="DejaVuSans-56"/>
      </defs>
      <g transform="translate(825.13204 523.484994)scale(0.18 -0.18)">
       <use xlink:href="#DejaVuSans-8722"/>
       <use x="83.789062" xlink:href="#DejaVuSans-48"/>
       <use x="147.412109" xlink:href="#DejaVuSans-46"/>
       <use x="179.199219" xlink:href="#DejaVuSans-48"/>
       <use x="242.822266" xlink:href="#DejaVuSans-56"/>
      </g>
     </g>
    </g>
    <g id="ytick_10">
     <g id="line2d_19">
      <g>
       <use style="stroke:#000000;stroke-width:0.8;" x="818.13204" xlink:href="#m08402ccfe9" y="461.6992"/>
      </g>
     </g>
     <g id="text_22">
      <!-- 0.00 -->
      <g transform="translate(825.13204 468.537794)scale(0.18 -0.18)">
       <use xlink:href="#DejaVuSans-48"/>
       <use x="63.623047" xlink:href="#DejaVuSans-46"/>
       <use x="95.410156" xlink:href="#DejaVuSans-48"/>
       <use x="159.033203" xlink:href="#DejaVuSans-48"/>
      </g>
     </g>
    </g>
    <g id="ytick_11">
     <g id="line2d_20">
      <g>
       <use style="stroke:#000000;stroke-width:0.8;" x="818.13204" xlink:href="#m08402ccfe9" y="406.752"/>
      </g>
     </g>
     <g id="text_23">
      <!-- 0.08 -->
      <g transform="translate(825.13204 413.590594)scale(0.18 -0.18)">
       <use xlink:href="#DejaVuSans-48"/>
       <use x="63.623047" xlink:href="#DejaVuSans-46"/>
       <use x="95.410156" xlink:href="#DejaVuSans-48"/>
       <use x="159.033203" xlink:href="#DejaVuSans-56"/>
      </g>
     </g>
    </g>
    <g id="ytick_12">
     <g id="line2d_21">
      <g>
       <use style="stroke:#000000;stroke-width:0.8;" x="818.13204" xlink:href="#m08402ccfe9" y="351.8048"/>
      </g>
     </g>
     <g id="text_24">
      <!-- 0.16 -->
      <g transform="translate(825.13204 358.643394)scale(0.18 -0.18)">
       <use xlink:href="#DejaVuSans-48"/>
       <use x="63.623047" xlink:href="#DejaVuSans-46"/>
       <use x="95.410156" xlink:href="#DejaVuSans-49"/>
       <use x="159.033203" xlink:href="#DejaVuSans-54"/>
      </g>
     </g>
    </g>
    <g id="ytick_13">
     <g id="line2d_22">
      <g>
       <use style="stroke:#000000;stroke-width:0.8;" x="818.13204" xlink:href="#m08402ccfe9" y="296.8576"/>
      </g>
     </g>
     <g id="text_25">
      <!-- 0.24 -->
      <g transform="translate(825.13204 303.696194)scale(0.18 -0.18)">
       <use xlink:href="#DejaVuSans-48"/>
       <use x="63.623047" xlink:href="#DejaVuSans-46"/>
       <use x="95.410156" xlink:href="#DejaVuSans-50"/>
       <use x="159.033203" xlink:href="#DejaVuSans-52"/>
      </g>
     </g>
    </g>
    <g id="ytick_14">
     <g id="line2d_23">
      <g>
       <use style="stroke:#000000;stroke-width:0.8;" x="818.13204" xlink:href="#m08402ccfe9" y="241.9104"/>
      </g>
     </g>
     <g id="text_26">
      <!-- 0.32 -->
      <g transform="translate(825.13204 248.748994)scale(0.18 -0.18)">
       <use xlink:href="#DejaVuSans-48"/>
       <use x="63.623047" xlink:href="#DejaVuSans-46"/>
       <use x="95.410156" xlink:href="#DejaVuSans-51"/>
       <use x="159.033203" xlink:href="#DejaVuSans-50"/>
      </g>
     </g>
    </g>
    <g id="ytick_15">
     <g id="line2d_24">
      <g>
       <use style="stroke:#000000;stroke-width:0.8;" x="818.13204" xlink:href="#m08402ccfe9" y="186.9632"/>
      </g>
     </g>
     <g id="text_27">
      <!-- 0.40 -->
      <g transform="translate(825.13204 193.801794)scale(0.18 -0.18)">
       <use xlink:href="#DejaVuSans-48"/>
       <use x="63.623047" xlink:href="#DejaVuSans-46"/>
       <use x="95.410156" xlink:href="#DejaVuSans-52"/>
       <use x="159.033203" xlink:href="#DejaVuSans-48"/>
      </g>
     </g>
    </g>
    <g id="ytick_16">
     <g id="line2d_25">
      <g>
       <use style="stroke:#000000;stroke-width:0.8;" x="818.13204" xlink:href="#m08402ccfe9" y="132.016"/>
      </g>
     </g>
     <g id="text_28">
      <!-- 0.48 -->
      <g transform="translate(825.13204 138.854594)scale(0.18 -0.18)">
       <use xlink:href="#DejaVuSans-48"/>
       <use x="63.623047" xlink:href="#DejaVuSans-46"/>
       <use x="95.410156" xlink:href="#DejaVuSans-52"/>
       <use x="159.033203" xlink:href="#DejaVuSans-56"/>
      </g>
     </g>
    </g>
    <g id="ytick_17">
     <g id="line2d_26">
      <g>
       <use style="stroke:#000000;stroke-width:0.8;" x="818.13204" xlink:href="#m08402ccfe9" y="77.0688"/>
      </g>
     </g>
     <g id="text_29">
      <!-- 0.56 -->
      <g transform="translate(825.13204 83.907394)scale(0.18 -0.18)">
       <use xlink:href="#DejaVuSans-48"/>
       <use x="63.623047" xlink:href="#DejaVuSans-46"/>
       <use x="95.410156" xlink:href="#DejaVuSans-53"/>
       <use x="159.033203" xlink:href="#DejaVuSans-54"/>
      </g>
     </g>
    </g>
   </g>
   <g id="patch_8">
    <path d="M 793.4058 571.5936 
L 793.4058 516.6464 
L 793.4058 132.016 
L 793.4058 77.0688 
L 818.13204 77.0688 
L 818.13204 132.016 
L 818.13204 516.6464 
L 818.13204 571.5936 
z
" style="fill:none;stroke:#000000;stroke-linejoin:miter;stroke-width:0.8;"/>
   </g>
  </g>
 </g>
 <defs>
  <clipPath id="pf00beb7231">
   <rect height="494.5248" width="627.6384" x="126.54" y="77.0688"/>
  </clipPath>
  <clipPath id="p7e9825f84c">
   <rect height="494.5248" width="24.72624" x="793.4058" y="77.0688"/>
  </clipPath>
 </defs>
</svg>
